<svg width="20" height="20" fill="none" xmlns="http://www.w3.org/2000/svg"><g clip-path="url(#prefix__clip0_1281_4919)"><path d="M12.583 16.142l.834 1.45a8.18 8.18 0 01-2.584.7V16.61a6.455 6.455 0 001.75-.467zm-9.191-5.308H1.708c.092.917.334 1.783.7 2.583l1.45-.833a6.457 6.457 0 01-.466-1.75zm9.191-6.975l.834-1.45a8.124 8.124 0 00-2.584-.7v1.683c.617.075 1.2.234 1.75.467zm4.025 5.308h1.684a8.123 8.123 0 00-.7-2.583l-1.45.833c.233.55.391 1.134.466 1.75zm-9.191 6.975l-.834 1.45a8.18 8.18 0 002.584.7V16.61a6.455 6.455 0 01-1.75-.467zm1.75-12.75V1.71a8.123 8.123 0 00-2.584.7l.834 1.45a6.457 6.457 0 011.75-.467zM15.3 5.976l1.45-.842a8.487 8.487 0 00-1.892-1.892l-.841 1.45c.491.375.916.8 1.283 1.284zM3.858 7.417l-1.45-.833a8.123 8.123 0 00-.7 2.583h1.684c.075-.616.233-1.2.466-1.75zm12.75 3.417a6.458 6.458 0 01-.466 1.75l1.45.833c.366-.8.608-1.675.7-2.583h-1.684zm-2.583 4.467l.842 1.45a8.488 8.488 0 001.891-1.892l-1.45-.842c-.375.492-.8.917-1.283 1.284zM5.975 4.7l-.833-1.459a8.352 8.352 0 00-1.892 1.9l1.45.842a6.417 6.417 0 011.275-1.283zM4.7 14.026l-1.45.833a8.488 8.488 0 001.892 1.892l.841-1.45A6.418 6.418 0 014.7 14.026zm6.133-8.192H9.167v4.508l3.575 3.575 1.175-1.175-3.084-3.083V5.834z" fill="#fff"/></g><defs><clipPath id="prefix__clip0_1281_4919"><path fill="#fff" d="M0 0h20v20H0z"/></clipPath></defs></svg>