<svg width="20" height="20" fill="none" xmlns="http://www.w3.org/2000/svg"><g clip-path="url(#prefix__clip0_1281_9536)"><path d="M7.917 5.416v2.5h-2.5v-2.5h2.5zm1.25-1.25h-5v5h5v-5zm-1.25 7.917v2.5h-2.5v-2.5h2.5zm1.25-1.25h-5v5h5v-5zm5.416-5.417v2.5h-2.5v-2.5h2.5zm1.25-1.25h-5v5h5v-5zm-5 6.667h1.25v1.25h-1.25v-1.25zm1.25 1.25h1.25v1.25h-1.25v-1.25zm1.25-1.25h1.25v1.25h-1.25v-1.25zm-2.5 2.5h1.25v1.25h-1.25v-1.25zm1.25 1.25h1.25v1.25h-1.25v-1.25zm1.25-1.25h1.25v1.25h-1.25v-1.25zm1.25-1.25h1.25v1.25h-1.25v-1.25zm0 2.5h1.25v1.25h-1.25v-1.25zm3.75-8.75h-1.666v-2.5h-2.5V1.666h4.166v4.167zm0 12.5v-4.167h-1.666v2.5h-2.5v1.667h4.166zm-16.666 0h4.166v-1.667h-2.5v-2.5H1.667v4.167zm0-16.667v4.167h1.666v-2.5h2.5V1.666H1.667z" fill="#fff"/></g><defs><clipPath id="prefix__clip0_1281_9536"><path fill="#fff" d="M0 0h20v20H0z"/></clipPath></defs></svg>