<svg width="198" height="122" viewBox="0 0 198 122" fill="none" xmlns="http://www.w3.org/2000/svg">
<path opacity="0.8" fill-rule="evenodd" clip-rule="evenodd" d="M39.7553 23.1691C41.7914 16.7762 43.6861 12.7959 45.4366 11.2267C50.2842 6.88339 56.9866 9.24717 58.4115 9.58573C63.4172 10.7783 61.7896 2.93054 66.0844 1.33536C68.9465 0.272425 71.3004 1.57174 73.1476 5.23332C74.7829 1.81727 77.275 0.2526 80.624 0.531679C85.6481 0.95411 87.4062 17.8071 94.3098 14.1181C101.215 10.4275 109.68 9.5842 113.296 15.0682C114.078 16.2546 114.377 14.4139 119.693 8.12933C125.009 1.8432 130.309 -0.926242 141.184 2.73381C146.128 4.39608 150.194 8.90252 153.386 16.2516C153.386 26.7407 161.156 32.9506 176.692 34.8767C199.999 37.7666 181.908 62.6534 153.386 69.9415C124.863 77.2311 59.1946 81.1657 23.5589 62.7495C-0.198221 50.4746 5.20057 37.2801 39.7538 23.1691H39.7553Z" fill="url(#paint0_linear_2352_123348)"/>
<path d="M98.1962 115.86C121.93 115.86 141.17 111.437 141.17 105.981C141.17 100.525 121.93 96.1016 98.1962 96.1016C74.4625 96.1016 55.2224 100.525 55.2224 105.981C55.2224 111.437 74.4625 115.86 98.1962 115.86Z" fill="url(#paint1_linear_2352_123348)"/>
<path opacity="0.675" fill-rule="evenodd" clip-rule="evenodd" d="M170.748 118.307C138.437 126.356 28.147 117.149 16.4081 112.945C10.6946 110.897 5.54451 107.046 0.959534 101.391C0.446372 100.759 0.123818 99.9953 0.029144 99.1886C-0.0655299 98.3819 0.071541 97.5651 0.424517 96.8326C0.777493 96.1 1.33197 95.4816 2.02387 95.0488C2.71577 94.616 3.51685 94.3865 4.33455 94.3867H197.06C201.06 104.967 192.29 112.94 170.748 118.307Z" fill="url(#paint2_linear_2352_123348)"/>
<path d="M131.172 79.5046L116.476 62.4365C116.129 62.0293 115.697 61.7014 115.21 61.475C114.723 61.2487 114.193 61.1293 113.655 61.125H82.055C80.9709 61.125 79.9406 61.6191 79.2343 62.4365L64.5381 79.5046V88.8743H131.172V79.5046Z" fill="url(#paint3_linear_2352_123348)"/>
<path d="M127.008 89.2197L114.145 74.3538C113.834 74.0028 113.451 73.7224 113.021 73.5316C112.592 73.3408 112.125 73.2442 111.655 73.2482H84.0558C83.1084 73.2482 82.1825 73.6386 81.5652 74.3538L68.7024 89.2197V97.3847H127.008V89.2197Z" fill="url(#paint4_linear_2352_123348)"/>
<path d="M131.172 99.6127C131.172 100.913 130.583 102.083 129.652 102.867L129.463 103.02C128.726 103.575 127.825 103.875 126.899 103.874H68.8129C68.2878 103.874 67.7857 103.779 67.3219 103.605L67.0916 103.514C66.3317 103.178 65.6861 102.631 65.2329 101.938C64.7798 101.245 64.5384 100.437 64.5381 99.6111V79.6074H80.7053C82.4911 79.6074 83.9298 81.0669 83.9298 82.8374V82.8603C83.9298 84.6324 85.3855 86.0613 87.1712 86.0613H108.539C109.398 86.0605 110.221 85.7219 110.828 85.1197C111.436 84.5174 111.778 83.7006 111.781 82.8481C111.781 81.0699 113.221 79.6074 115.005 79.6074H131.174L131.172 99.6127Z" fill="url(#paint5_linear_2352_123348)"/>
<defs>
<linearGradient id="paint0_linear_2352_123348" x1="102.389" y1="56.8496" x2="102.389" y2="-12.8187" gradientUnits="userSpaceOnUse">
<stop stop-color="#DEDEDE" stop-opacity="0"/>
<stop offset="1" stop-color="#A9A9A9" stop-opacity="0.3"/>
</linearGradient>
<linearGradient id="paint1_linear_2352_123348" x1="93.7184" y1="115.86" x2="93.7184" y2="96.1016" gradientUnits="userSpaceOnUse">
<stop stop-color="white" stop-opacity="0"/>
<stop offset="1" stop-color="#96A1C5" stop-opacity="0.373"/>
</linearGradient>
<linearGradient id="paint2_linear_2352_123348" x1="99" y1="121.499" x2="99" y2="89.0523" gradientUnits="userSpaceOnUse">
<stop stop-color="white" stop-opacity="0"/>
<stop offset="1" stop-color="#919191" stop-opacity="0.15"/>
</linearGradient>
<linearGradient id="paint3_linear_2352_123348" x1="97.8552" y1="61.125" x2="97.8552" y2="73.5983" gradientUnits="userSpaceOnUse">
<stop stop-color="#5389F5"/>
<stop offset="1" stop-color="#416FDC"/>
</linearGradient>
<linearGradient id="paint4_linear_2352_123348" x1="105.636" y1="97.3847" x2="105.636" y2="71.9649" gradientUnits="userSpaceOnUse">
<stop stop-color="#DCE9FF"/>
<stop offset="1" stop-color="#B6CFFF"/>
</linearGradient>
<linearGradient id="paint5_linear_2352_123348" x1="97.856" y1="79.6074" x2="97.856" y2="103.874" gradientUnits="userSpaceOnUse">
<stop stop-color="#7CA5F7"/>
<stop offset="1" stop-color="#C4D6FC"/>
</linearGradient>
</defs>
</svg>
