
    <svg width="18" height="16" viewBox="0 0 18 16" fill="none" xmlns="http://www.w3.org/2000/svg">
        <path d="M8.85945 11.3217C8.87615 11.3431 8.89749 11.3603 8.92186 11.3722C8.94622 11.3841 8.97297 11.3902 9.00007 11.3902C9.02717 11.3902 9.05392 11.3841 9.07828 11.3722C9.10265 11.3603 9.12399 11.3431 9.1407 11.3217L11.6407 8.15876C11.7322 8.04269 11.6496 7.87082 11.5001 7.87082H9.84605V0.317243C9.84605 0.219029 9.7657 0.138672 9.66748 0.138672H8.3282C8.22998 0.138672 8.14962 0.219029 8.14962 0.317243V7.86858H6.50007C6.35052 7.86858 6.26793 8.04046 6.35945 8.15653L8.85945 11.3217ZM17.1697 10.5405H15.8304C15.7322 10.5405 15.6519 10.6208 15.6519 10.719V14.1565H2.34828V10.719C2.34828 10.6208 2.26793 10.5405 2.16971 10.5405H0.830427C0.732213 10.5405 0.651855 10.6208 0.651855 10.719V15.1387C0.651855 15.5338 0.971052 15.853 1.36614 15.853H16.634C17.0291 15.853 17.3483 15.5338 17.3483 15.1387V10.719C17.3483 10.6208 17.2679 10.5405 17.1697 10.5405Z" fill="white" />
    </svg>